<?xml version="1.0" encoding="UTF-8" standalone="no"?>
<svg
   xmlns:dc="http://purl.org/dc/elements/1.1/"
   xmlns:cc="http://creativecommons.org/ns#"
   xmlns:rdf="http://www.w3.org/1999/02/22-rdf-syntax-ns#"
   xmlns:svg="http://www.w3.org/2000/svg"
   xmlns="http://www.w3.org/2000/svg"
   xmlns:sodipodi="http://sodipodi.sourceforge.net/DTD/sodipodi-0.dtd"
   xmlns:inkscape="http://www.inkscape.org/namespaces/inkscape"
   sodipodi:docname="github-pages-logo-1.svg"
   inkscape:version="1.0 (4035a4f, 2020-05-01)"
   width="40"
   height="90"
   viewBox="0 0 340 390"
   version="1.1"
   id="SVGRoot">
  <defs
     id="defs1431" />
  <sodipodi:namedview
     inkscape:window-maximized="0"
     inkscape:window-y="43"
     inkscape:window-x="180"
     inkscape:window-height="915"
     inkscape:window-width="1252"
     showgrid="false"
     inkscape:document-rotation="0"
     inkscape:current-layer="layer1"
     inkscape:document-units="px"
     inkscape:cy="234.74274"
     inkscape:cx="248.05046"
     inkscape:zoom="1.3904372"
     inkscape:pageshadow="2"
     inkscape:pageopacity="0.0"
     borderopacity="1.0"
     bordercolor="#666666"
     pagecolor="#ffffff"
     id="base" />
  <metadata
     id="metadata1434">
    <rdf:RDF>
      <cc:Work
         rdf:about="">
        <dc:format>image/svg+xml</dc:format>
        <dc:type
           rdf:resource="http://purl.org/dc/dcmitype/StillImage" />
        <dc:title></dc:title>
      </cc:Work>
    </rdf:RDF>
  </metadata>
  <g
     id="layer1"
     inkscape:groupmode="layer"
     inkscape:label="Layer 1">
    <path
       style="display:inline;opacity:1;fill:#676edf;fill-opacity:1;stroke-width:0.449563"
       d="M 56.173375,2.248874 C 40.22113,2.355192 24.24762,2.0780023 8.3083816,2.627307 c -1.25807,91.330291 -0.35992,139.816753 0.14495,224.424243 26.8930784,0.27666 53.7961234,0.0786 80.6831424,-0.68939 11.571086,-1.2398 25.862916,-5.69344 35.975856,-13.47677 14.04939,-10.50017 23.51987,-21.95033 36.0136,-34.96626 34.47978,-37.57195 67.21401,-72.07253 100.86344,-110.789288 2.23351,-3.026691 17.56914,-20.139231 18.92742,-23.956481 -0.25436,-2.5331 -16.58887,14.75756 -23.14881,20.14883 -23.69654,20.509761 -37.49499,34.100407 -60.90501,55.106379 -5.22119,4.35553 -10.0357,9.68704 -15.80852,12.87435 -1.26474,0.14627 -0.65132,-2.85664 -1.07777,-3.713 -2.08301,-20.75263 -0.64051,-42.804928 -8.27312,-62.109769 C 160.65731,35.374664 137.59344,13.704574 112.17051,5.0284633 102.84936,1.3052663 92.888934,2.699382 83.257244,2.266649 74.229324,2.234519 65.201385,2.253419 56.173425,2.248129 Z m 6.79148,58.590357 c 13.678379,1.20794 28.405519,0.5085 40.638305,9.527391 10.82783,7.83054 17.6347,22.874456 18.17665,38.169148 0.765,15.57721 -2.6374,32.88457 -12.57963,43.39052 -8.96965,9.24182 -20.755756,13.32363 -32.273096,13.16901 -5.239559,-0.004 -10.623649,0.88154 -15.816599,-0.0151 -1.30858,-5.91666 -0.5875,-12.47765 -0.82393,-18.64422 0.12854,-28.48029 0.1852,-57.009858 1.00211,-85.450579 0.54121,-0.19653 1.11928,-0.1508 1.67619,-0.14475 z"
       id="path1236"
       sodipodi:nodetypes="sccccccccccccccssscccccccss" />
    <path
       style="display:inline;opacity:1;fill:#676edf;fill-opacity:1;stroke-width:0.449563"
       d="m 277.95177,158.12981 c -14.54211,26.23696 -28.13261,54.18373 -42.28025,77.60641 -0.77159,1.23654 -3.73667,3.04134 -4.76171,0.43585 -6.79612,-8.23053 -36.21672,-64.06813 -44.66744,-77.71359 -6.63833,7.56272 -14.67587,16.75465 -21.6381,23.87256 -35.57277,38.32849 -70.870604,77.05236 -105.968935,116.04639 -7.533358,9.80046 -42.117029,46.54896 -39.612799,47.9681 3.02372,-1.04678 9.3658,-7.28965 12.055991,-9.25625 33.493418,-28.57516 75.768353,-68.65327 97.852263,-85.71591 1.64594,49.53917 0.73115,95.00459 1.22192,134.74636 14.10704,-0.32769 43.06042,-0.0265 57.07132,-0.78887 0.45225,-39.81641 -0.70016,-78.59576 0.76735,-113.16812 15.15731,22.98856 21.68644,32.62802 32.9969,51.01689 5.51921,8.23933 10.28863,17.40832 13.21512,17.39229 2.50723,0.24151 6.13198,-9.06675 10.10011,-16.07376 8.40329,-15.35762 25.09587,-41.98742 30.95815,-51.8377 0.71146,40.36214 0.24567,71.59873 0.45116,112.82 14.47722,0.20598 43.06337,0.78251 57.34004,0.58254 0.19314,-76.68783 -0.39564,-155.20559 0.89806,-227.25967 -11.24882,-0.50268 -43.52281,-0.76388 -55.48426,-0.93854 l -0.37304,0.192 z"
       id="path1238"
       sodipodi:nodetypes="cccccccccccccccccccccc" />
  </g>
</svg>